<?xml version="1.0" standalone="no"?>
<!DOCTYPE svg PUBLIC "-//W3C//DTD SVG 20010904//EN"
 "http://www.w3.org/TR/2001/REC-SVG-20010904/DTD/svg10.dtd">
<svg version="1.0" xmlns="http://www.w3.org/2000/svg"
 width="228.000000pt" height="228.000000pt" viewBox="0 0 228.000000 228.000000"
 preserveAspectRatio="xMidYMid meet">
<metadata>
Created by potrace 1.14, written by Peter Selinger 2001-2017
</metadata>
<g transform="translate(0.000000,228.000000) scale(0.100000,-0.100000)"
fill="#000000" stroke="none">
<path d="M1080 2226 c-161 -157 -245 -280 -334 -488 -51 -117 -96 -316 -111
-483 -3 -38 -6 -106 -7 -150 0 -44 -7 -91 -13 -105 -7 -14 -47 -70 -89 -124
-82 -106 -120 -175 -135 -244 -7 -33 -9 -581 -2 -625 0 -5 25 23 54 62 113
153 175 237 188 258 8 13 18 23 24 23 6 0 57 -47 115 -105 57 -57 106 -102
109 -99 3 3 7 58 8 122 2 148 6 165 48 232 19 30 35 57 35 61 0 7 -73 22 -112
24 -24 0 -36 15 -63 74 -18 37 -20 51 -11 51 21 0 257 -49 267 -56 7 -4 8 -40
4 -98 -14 -196 -14 -221 -7 -233 4 -7 27 -21 52 -32 40 -18 47 -18 79 -5 64
27 64 27 56 144 -4 58 -8 132 -9 165 l-1 60 125 27 c164 36 163 37 138 -29
-22 -57 -40 -68 -121 -76 -26 -3 -50 -7 -53 -10 -3 -2 12 -33 33 -68 l38 -63
3 -154 4 -153 105 103 c58 57 112 109 120 117 12 12 16 11 28 -5 234 -320 253
-343 257 -314 3 16 4 159 4 317 -1 346 0 341 -140 526 -51 67 -96 128 -100
135 -4 7 -10 55 -12 105 -8 192 -17 265 -45 382 -11 44 -21 89 -24 99 -34 141
-134 342 -237 476 -53 69 -191 210 -205 210 -4 0 -33 -24 -63 -54z"/>
</g>
</svg>
