<svg width="157" height="41" viewBox="0 0 157 41" fill="none" xmlns="http://www.w3.org/2000/svg">
<path d="M54.1106 28.877C52.5495 28.877 51.202 28.5313 50.068 27.8398C48.934 27.1483 48.0687 26.1809 47.4723 24.9377C46.8832 23.6871 46.5887 22.2416 46.5887 20.6012C46.5887 18.9607 46.8832 17.5189 47.4723 16.2756C48.0687 15.0251 48.934 14.054 50.068 13.3625C51.202 12.671 52.5495 12.3253 54.1106 12.3253C55.3109 12.3253 56.3859 12.5349 57.3358 12.9543C58.2931 13.3662 59.0921 13.9584 59.7327 14.7308C60.3807 15.4959 60.863 16.4044 61.1796 17.4563L58.838 18.0853C58.514 16.9524 57.9544 16.077 57.1591 15.4591C56.3638 14.8338 55.3477 14.5211 54.1106 14.5211C52.9987 14.5211 52.0635 14.7749 51.305 15.2825C50.5466 15.7901 49.9759 16.5037 49.593 17.4232C49.2175 18.3428 49.0297 19.4241 49.0297 20.6674C49.0297 21.8811 49.2211 22.9405 49.604 23.8453C49.987 24.7428 50.5576 25.4416 51.3161 25.9418C52.0819 26.4347 53.0134 26.6811 54.1106 26.6811C55.3477 26.6811 56.3638 26.3722 57.1591 25.7543C57.9544 25.129 58.514 24.2499 58.838 23.117L61.1796 23.746C60.863 24.7979 60.3807 25.7101 59.7327 26.4825C59.0921 27.2476 58.2931 27.8398 57.3358 28.2591C56.3859 28.671 55.3109 28.877 54.1106 28.877Z" fill="#212121"/>
<path d="M66.536 28.877C65.6818 28.877 64.9528 28.7189 64.349 28.4025C63.7452 28.0788 63.285 27.6485 62.9683 27.1115C62.659 26.5671 62.5044 25.9639 62.5044 25.3018C62.5044 23.5437 63.4433 22.3667 65.321 21.7708C65.888 21.6016 66.5286 21.4582 67.2429 21.3405C67.9645 21.2154 68.9623 21.0646 70.2362 20.888L70.6007 20.8439C70.5639 20.0053 70.3356 19.3947 69.9159 19.0122C69.4961 18.6223 68.8261 18.4274 67.9056 18.4274C67.2355 18.4274 66.6464 18.5818 66.1383 18.8908C65.6303 19.1998 65.2805 19.6706 65.089 20.3032L62.9352 19.6411C63.2297 18.5892 63.7967 17.769 64.6362 17.1805C65.483 16.592 66.5802 16.2977 67.9277 16.2977C69.0249 16.2977 69.9637 16.4853 70.7443 16.8605C71.5248 17.2356 72.0955 17.8057 72.4563 18.5708C72.6257 18.9313 72.7361 19.3175 72.7877 19.7294C72.8466 20.134 72.8761 20.6269 72.8761 21.208V28.546H70.8326V26.8136C70.3393 27.5124 69.7392 28.031 69.0322 28.3694C68.3327 28.7078 67.5006 28.877 66.536 28.877ZM64.7908 25.2798C64.7908 25.7726 64.9712 26.1809 65.332 26.5046C65.7002 26.8283 66.2378 26.9901 66.9447 26.9901C67.5706 26.9901 68.1228 26.8798 68.6015 26.6591C69.0801 26.431 69.463 26.1368 69.7502 25.7763C70.0447 25.4159 70.2399 25.0333 70.3356 24.6287C70.4829 24.2021 70.5639 23.5805 70.5786 22.7639L70.2914 22.808C69.2163 22.9625 68.41 23.0876 67.8725 23.1832C67.3423 23.2789 66.8637 23.3892 66.4366 23.5143C65.9211 23.6908 65.5161 23.9188 65.2216 24.1984C64.9344 24.4779 64.7908 24.8384 64.7908 25.2798Z" fill="#212121"/>
<path d="M75.3024 16.6287H77.3569V18.5267C77.6514 18.0044 78.0196 17.5961 78.4614 17.3018C78.7928 17.0517 79.1757 16.8641 79.6101 16.7391C80.0446 16.614 80.4864 16.5515 80.9356 16.5515C81.1786 16.5515 81.4473 16.5772 81.7419 16.6287V18.7915C81.4915 18.7179 81.2007 18.6811 80.8693 18.6811C80.56 18.6811 80.2544 18.7216 79.9525 18.8025C79.658 18.8761 79.3855 18.9938 79.1352 19.1556C78.1337 19.7956 77.633 20.9211 77.633 22.5322V28.546H75.3024V16.6287Z" fill="#212121"/>
<path d="M89.0036 28.877C88.2672 28.877 87.6008 28.7556 87.0043 28.5129C86.4079 28.2701 85.8888 27.9207 85.4469 27.4646V28.546H83.3925V12.6563H85.712V17.4453C86.5809 16.6802 87.6634 16.2977 88.9594 16.2977C90.0566 16.2977 91.0138 16.5699 91.8312 17.1143C92.6559 17.6513 93.2892 18.3979 93.731 19.3543C94.1802 20.3032 94.4048 21.3772 94.4048 22.5763C94.4048 23.768 94.1839 24.8421 93.742 25.7984C93.3002 26.7547 92.6706 27.5087 91.8533 28.0605C91.0359 28.6048 90.086 28.877 89.0036 28.877ZM85.4469 22.5763C85.4469 23.8784 85.712 24.9083 86.2422 25.666C86.7798 26.4163 87.5934 26.7915 88.6832 26.7915C89.3975 26.7915 89.9977 26.6076 90.4836 26.2398C90.977 25.872 91.3452 25.3717 91.5882 24.7391C91.8312 24.1064 91.9527 23.3855 91.9527 22.5763C91.9527 21.7745 91.8312 21.0572 91.5882 20.4246C91.3452 19.792 90.9733 19.2954 90.4726 18.9349C89.9719 18.5671 89.3496 18.3832 88.6059 18.3832C87.5529 18.3832 86.7613 18.7621 86.2312 19.5198C85.7084 20.2701 85.4469 21.289 85.4469 22.5763Z" fill="#212121"/>
<path d="M101.582 28.877C100.411 28.877 99.384 28.6122 98.5004 28.0825C97.6167 27.5455 96.9356 26.8025 96.457 25.8536C95.9783 24.8972 95.739 23.8048 95.739 22.5763C95.739 21.3405 95.982 20.248 96.468 19.2991C96.954 18.3501 97.6388 17.6145 98.5225 17.0922C99.4061 16.5625 100.426 16.2977 101.582 16.2977C102.753 16.2977 103.78 16.5625 104.664 17.0922C105.555 17.6218 106.24 18.3648 106.718 19.3211C107.197 20.2701 107.436 21.3552 107.436 22.5763C107.436 23.8122 107.193 24.9083 106.707 25.8646C106.228 26.8136 105.547 27.5529 104.664 28.0825C103.78 28.6122 102.753 28.877 101.582 28.877ZM98.1911 22.5763C98.1911 23.8563 98.482 24.8641 99.0637 25.5998C99.6454 26.3354 100.485 26.7032 101.582 26.7032C102.687 26.7032 103.53 26.3317 104.111 25.5887C104.693 24.8384 104.984 23.8343 104.984 22.5763C104.984 21.3037 104.693 20.3032 104.111 19.5749C103.53 18.8393 102.687 18.4715 101.582 18.4715C100.463 18.4715 99.616 18.8393 99.0416 19.5749C98.4746 20.3106 98.1911 21.311 98.1911 22.5763Z" fill="#212121"/>
<path d="M117.794 22.6867C117.794 21.517 117.577 20.5276 117.142 19.7184C116.708 18.9018 115.92 18.4936 114.779 18.4936C113.873 18.4936 113.14 18.8025 112.581 19.4205C112.028 20.0384 111.752 21.0131 111.752 22.3446V28.546H109.41V16.6287H111.476V18.0522C111.925 17.4931 112.481 17.0628 113.144 16.7611C113.807 16.4595 114.565 16.3087 115.419 16.3087C116.671 16.3087 117.647 16.6251 118.346 17.2577C119.053 17.883 119.528 18.6149 119.771 19.4536C120.014 20.2922 120.136 21.1161 120.136 21.9253V28.546H117.794V22.6867Z" fill="#212121"/>
<path d="M122.792 12.6563H125.1V28.546H122.792V12.6563Z" fill="#212121"/>
<path d="M128.196 12.4356H130.505V14.6756H128.196V12.4356ZM128.196 16.6287H130.505V28.546H128.196V16.6287Z" fill="#212121"/>
<path d="M141.752 22.6867C141.752 21.517 141.535 20.5276 141.1 19.7184C140.666 18.9018 139.878 18.4936 138.737 18.4936C137.831 18.4936 137.098 18.8025 136.539 19.4205C135.986 20.0384 135.71 21.0131 135.71 22.3446V28.546H133.369V16.6287H135.434V18.0522C135.883 17.4931 136.439 17.0628 137.102 16.7611C137.765 16.4595 138.523 16.3087 139.377 16.3087C140.629 16.3087 141.605 16.6251 142.304 17.2577C143.011 17.883 143.486 18.6149 143.729 19.4536C143.972 20.2922 144.094 21.1161 144.094 21.9253V28.546H141.752V22.6867Z" fill="#212121"/>
<path d="M146.529 12.6563H148.871V22.3667L153.554 16.6287H156.492L151.544 22.5874L157 28.546H153.863L148.871 22.808V28.546H146.518L146.529 12.6563Z" fill="#212121"/>
<path d="M22.6615 3.4931L5.24657 13.5115V22.7069L7.336 23.9069V14.7207L22.6523 5.88391L32.7911 11.7V12.9414L34.8805 14.1368V10.5L22.6615 3.4931Z" fill="#212121"/>
<path d="M9.40241 19.3092V21.7046L16.3288 25.6862V30.3253L18.4182 29.1253V25.9023L25.4551 21.8563V19.4609L18.4182 23.5069V19.6724L25.2066 15.769L23.1217 14.569L18.4182 17.2724V10.7115L16.3288 11.9115V17.0609L11.8462 14.4862L9.76138 15.6862L16.3288 19.4563V23.2908L9.40241 19.3092Z" fill="#212121"/>
<path d="M19.4998 10.0908L32.8095 17.7414L32.7911 29.3L17.4379 38.1046L16.3702 37.4885L14.2854 38.6885L17.4379 40.5L34.8805 30.5V16.5414L21.58 8.9L19.4998 10.0908Z" fill="#212121"/>
<path d="M29.6339 18.3115L27.5445 17.1115V26.2839L12.2006 35.0977L2.08942 29.3V28.0678L0 26.8678V30.5L12.2006 37.4931L29.5833 27.5069L29.6339 18.3115Z" fill="#212121"/>
<path d="M15.3301 30.8954L2.08942 23.2908V11.7L17.4379 2.8954L18.4873 3.4931L20.5721 2.2977L17.4379 0.5L0 10.5V24.4724L13.2591 32.0862L15.3301 30.8954Z" fill="#212121"/>
</svg>
