<svg width="92" height="40" viewBox="0 0 92 40" fill="none" xmlns="http://www.w3.org/2000/svg">
<g clip-path="url(#clip0_3965_554)">
<path d="M0 39.4183V8.6886H11.62C14.671 8.6886 17.1848 9.63187 19.1615 11.5184C21.1485 13.405 22.1447 15.8417 22.1447 18.8235C22.1447 20.8254 21.6544 22.6071 20.6739 24.1792C19.7091 25.7514 18.4417 26.9514 16.8823 27.7794L23.2191 39.4183H15.7401L10.6864 29.1524H6.70703V39.4183H0ZM6.71225 23.215H11.041C12.298 23.215 13.3202 22.8272 14.1077 22.0569C14.8952 21.2865 15.2864 20.207 15.2864 18.8235C15.2864 17.5501 14.8952 16.5387 14.1077 15.7789C13.3202 15.0085 12.2719 14.6207 10.9576 14.6207H6.71225V23.215Z" fill="#042278"/>
<path d="M23.7612 27.8266C23.7612 26.1287 24.0533 24.5356 24.6322 23.0473C25.2268 21.559 26.0404 20.2751 27.0782 19.1904C28.1161 18.1056 29.3835 17.2462 30.8907 16.6173C32.4084 15.9885 34.0617 15.6741 35.8401 15.6741C39.3762 15.6741 42.2655 16.8374 44.5186 19.1694C46.7717 21.4857 47.893 24.3679 47.893 27.8266C47.893 29.5245 47.5957 31.128 47.0011 32.6268C46.4222 34.1151 45.6086 35.399 44.5551 36.4837C43.5068 37.5685 42.2238 38.4279 40.7009 39.0568C39.1937 39.6856 37.5612 40 35.7932 40C33.4619 40 31.3653 39.4655 29.5191 38.3912C27.6832 37.3065 26.2594 35.8391 25.2528 33.9998C24.2567 32.1551 23.7612 30.1009 23.7612 27.8266ZM30.4109 27.8266C30.4109 29.5978 30.9168 31.0494 31.9234 32.1761C32.9456 33.2923 34.2338 33.8478 35.7984 33.8478C37.363 33.8478 38.6721 33.2818 39.6943 32.1551C40.7322 31.0285 41.2485 29.5821 41.2485 27.8266C41.2485 26.071 40.7322 24.6352 39.6943 23.519C38.6721 22.3923 37.3735 21.8263 35.7984 21.8263C34.2234 21.8263 32.9456 22.3923 31.9234 23.519C30.9168 24.6352 30.4109 26.071 30.4109 27.8266Z" fill="#042278"/>
<path d="M50.1255 32.1342V6.50336H56.7126V31.3429C56.7126 32.7421 57.3332 33.4443 58.5745 33.4443H59.3829V39.4236H57.1246C54.9028 39.4236 53.1765 38.779 51.9457 37.4951C50.7305 36.2112 50.1255 34.4242 50.1255 32.1394V32.1342Z" fill="#042278"/>
<path d="M61.3543 32.1342V6.50336H67.9414V31.3429C67.9414 32.7421 68.562 33.4443 69.8033 33.4443H70.6117V39.4236H68.3534C66.1317 39.4236 64.4054 38.779 63.1745 37.4951C61.9593 36.2112 61.3491 34.4242 61.3491 32.1394L61.3543 32.1342Z" fill="#042278"/>
<path d="M72.9795 12.6556C72.2598 11.9848 71.8999 11.0887 71.8999 9.97771C71.8999 8.86674 72.2598 7.97063 72.9795 7.29986C73.6992 6.62909 74.6276 6.2937 75.775 6.2937C76.9223 6.2937 77.8455 6.62909 78.5496 7.29986C79.2693 7.95491 79.6291 8.85102 79.6291 9.97771C79.6291 11.1044 79.2693 12.0057 78.5496 12.6765C77.8455 13.3316 76.9223 13.6617 75.775 13.6617C74.6276 13.6617 73.694 13.3263 72.9795 12.6556ZM72.5049 39.4235V16.2557H79.092V39.4235H72.5049Z" fill="#042278"/>
<mask id="mask0_3965_554" style="mask-type:luminance" maskUnits="userSpaceOnUse" x="81" y="0" width="11" height="11">
<path d="M92.0002 0H81.5693V10.4808H92.0002V0Z" fill="#042278"/>
</mask>
<g mask="url(#mask0_3965_554)">
<path d="M86.7848 0C83.9058 0 81.5693 2.3477 81.5693 5.2404C81.5693 8.13311 83.9058 10.4808 86.7848 10.4808C89.6637 10.4808 92.0002 8.13311 92.0002 5.2404C92.0002 2.3477 89.6637 0 86.7848 0ZM89.9818 8.45277C89.1265 9.3122 87.9947 9.78383 86.7848 9.78383C85.5748 9.78383 84.443 9.3122 83.5877 8.45277C82.7324 7.59334 82.263 6.45618 82.263 5.2404C82.263 4.02463 82.7324 2.88746 83.5877 2.02804C84.443 1.16861 85.5748 0.696974 86.7848 0.696974C87.9947 0.696974 89.1265 1.16861 89.9818 2.02804C90.8371 2.88746 91.3065 4.02463 91.3065 5.2404C91.3065 6.45618 90.8371 7.59334 89.9818 8.45277Z" fill="#042278"/>
<path d="M84.9487 7.92872V2.55206H86.868C87.4469 2.55206 87.9059 2.70403 88.2449 3.00274C88.5839 3.30144 88.7508 3.72591 88.7508 4.26568C88.7508 4.66395 88.6517 4.99933 88.4535 5.26659C88.2553 5.53385 87.9841 5.72775 87.6399 5.84828L88.8916 7.92872H87.8694L86.7376 6.03169H85.8301V7.92872H84.9487ZM85.8301 5.24039H86.8315C87.1496 5.24039 87.4 5.15654 87.5825 4.98885C87.7651 4.82116 87.8589 4.58534 87.8589 4.27616C87.8589 3.96697 87.7651 3.74687 87.5825 3.58966C87.4 3.43245 87.1444 3.35384 86.8159 3.35384H85.8301V5.23515V5.24039Z" fill="#042278"/>
</g>
</g>
<defs>
<clipPath id="clip0_3965_554">
<rect width="92" height="40" fill="#042278"/>
</clipPath>
</defs>
</svg>
